<?xml version="1.0" encoding="UTF-8"?>
<!DOCTYPE svg PUBLIC "-//W3C//DTD SVG 1.1//EN" "http://www.w3.org/Graphics/SVG/1.1/DTD/svg11.dtd">
<svg xmlns="http://www.w3.org/2000/svg" version="1.1" width="560px" height="559px" style="shape-rendering:geometricPrecision; text-rendering:geometricPrecision; image-rendering:optimizeQuality; fill-rule:evenodd; clip-rule:evenodd" xmlns:xlink="http://www.w3.org/1999/xlink">
<g><path style="opacity:1" fill="#efefef" d="M -0.5,-0.5 C 34.1667,-0.5 68.8333,-0.5 103.5,-0.5C 103.5,2.16667 103.5,4.83333 103.5,7.5C 98.1667,7.5 92.8333,7.5 87.5,7.5C 87.5,10.1667 87.5,12.8333 87.5,15.5C 84.8333,15.5 82.1667,15.5 79.5,15.5C 79.5,17.1667 79.5,18.8333 79.5,20.5C 76.8333,20.5 74.1667,20.5 71.5,20.5C 71.5,21.5 71.5,22.5 71.5,23.5C 68.8333,23.5 66.1667,23.5 63.5,23.5C 63.5,26.1667 63.5,28.8333 63.5,31.5C 60.8333,31.5 58.1667,31.5 55.5,31.5C 55.5,34.1667 55.5,36.8333 55.5,39.5C 52.8333,39.5 50.1667,39.5 47.5,39.5C 47.5,42.1667 47.5,44.8333 47.5,47.5C 44.8333,47.5 42.1667,47.5 39.5,47.5C 39.5,50.1667 39.5,52.8333 39.5,55.5C 36.8333,55.5 34.1667,55.5 31.5,55.5C 31.5,58.1667 31.5,60.8333 31.5,63.5C 28.8333,63.5 26.1667,63.5 23.5,63.5C 23.5,66.1667 23.5,68.8333 23.5,71.5C 20.8333,71.5 18.1667,71.5 15.5,71.5C 15.5,74.1667 15.5,76.8333 15.5,79.5C 12.8333,79.5 10.1667,79.5 7.5,79.5C 7.5,82.1667 7.5,84.8333 7.5,87.5C 4.83333,87.5 2.16667,87.5 -0.5,87.5C -0.5,58.1667 -0.5,28.8333 -0.5,-0.5 Z"/></g>
<g><path style="opacity:1" fill="#f7f7f7" d="M 103.5,-0.5 C 130.167,-0.5 156.833,-0.5 183.5,-0.5C 183.5,2.16667 183.5,4.83333 183.5,7.5C 177.167,7.5 170.833,7.5 164.5,7.5C 164.5,10.1667 164.5,12.8333 164.5,15.5C 163.167,15.5 161.833,15.5 160.5,15.5C 160.167,4.83333 159.833,4.83333 159.5,15.5C 153.167,15.5 146.833,15.5 140.5,15.5C 140.5,18.1667 140.5,20.8333 140.5,23.5C 139.167,23.5 137.833,23.5 136.5,23.5C 136.167,12.8333 135.833,12.8333 135.5,23.5C 131.833,23.5 128.167,23.5 124.5,23.5C 124.5,26.1667 124.5,28.8333 124.5,31.5C 123.167,31.5 121.833,31.5 120.5,31.5C 120.167,20.8333 119.833,20.8333 119.5,31.5C 115.833,31.5 112.167,31.5 108.5,31.5C 108.5,34.1667 108.5,36.8333 108.5,39.5C 107.167,39.5 105.833,39.5 104.5,39.5C 104.167,28.8333 103.833,28.8333 103.5,39.5C 102.5,39.5 101.5,39.5 100.5,39.5C 100.5,42.1667 100.5,44.8333 100.5,47.5C 99.1667,47.5 97.8333,47.5 96.5,47.5C 96.1667,36.8333 95.8333,36.8333 95.5,47.5C 91.8333,47.5 88.1667,47.5 84.5,47.5C 84.5,50.1667 84.5,52.8333 84.5,55.5C 83.1667,55.5 81.8333,55.5 80.5,55.5C 80.1667,44.8333 79.8333,44.8333 79.5,55.5C 78.5,55.5 77.5,55.5 76.5,55.5C 76.5,58.1667 76.5,60.8333 76.5,63.5C 75.1667,63.5 73.8333,63.5 72.5,63.5C 72.1667,52.8333 71.8333,52.8333 71.5,63.5C 70.5,63.5 69.5,63.5 68.5,63.5C 68.5,66.1667 68.5,68.8333 68.5,71.5C 67.1667,71.5 65.8333,71.5 64.5,71.5C 64.1667,60.8333 63.8333,60.8333 63.5,71.5C 59.8333,71.5 56.1667,71.5 52.5,71.5C 52.5,74.1667 52.5,76.8333 52.5,79.5C 51.1667,79.5 49.8333,79.5 48.5,79.5C 48.1667,68.8333 47.8333,68.8333 47.5,79.5C 46.5,79.5 45.5,79.5 44.5,79.5C 44.5,82.1667 44.5,84.8333 44.5,87.5C 43.1667,87.5 41.8333,87.5 40.5,87.5C 40.1667,76.8333 39.8333,76.8333 39.5,87.5C 38.5,87.5 37.5,87.5 36.5,87.5C 36.5,92.8333 36.5,98.1667 36.5,103.5C 35.1667,103.5 33.8333,103.5 32.5,103.5C 32.1667,82.1667 31.8333,82.1667 31.5,103.5C 30.5,103.5 29.5,103.5 28.5,103.5C 28.5,106.167 28.5,108.833 28.5,111.5C 27.1667,111.5 25.8333,111.5 24.5,111.5C 24.1667,100.833 23.8333,100.833 23.5,111.5C 22.5,111.5 21.5,111.5 20.5,111.5C 20.5,114.167 20.5,116.833 20.5,119.5C 19.1667,119.5 17.8333,119.5 16.5,119.5C 16.1667,108.833 15.8333,108.833 15.5,119.5C 14.5,119.5 13.5,119.5 12.5,119.5C 12.5,124.833 12.5,130.167 12.5,135.5C 11.1667,135.5 9.83333,135.5 8.5,135.5C 8.16667,114.167 7.83333,114.167 7.5,135.5C 6.5,135.5 5.5,135.5 4.5,135.5C 4.5,138.167 4.5,140.833 4.5,143.5C 3.16667,143.5 1.83333,143.5 0.5,143.5C 0.8064,140.615 0.473067,137.948 -0.5,135.5C -0.5,119.5 -0.5,103.5 -0.5,87.5C 2.16667,87.5 4.83333,87.5 7.5,87.5C 7.5,84.8333 7.5,82.1667 7.5,79.5C 10.1667,79.5 12.8333,79.5 15.5,79.5C 15.5,76.8333 15.5,74.1667 15.5,71.5C 18.1667,71.5 20.8333,71.5 23.5,71.5C 23.5,68.8333 23.5,66.1667 23.5,63.5C 26.1667,63.5 28.8333,63.5 31.5,63.5C 31.5,60.8333 31.5,58.1667 31.5,55.5C 34.1667,55.5 36.8333,55.5 39.5,55.5C 39.5,52.8333 39.5,50.1667 39.5,47.5C 42.1667,47.5 44.8333,47.5 47.5,47.5C 47.5,44.8333 47.5,42.1667 47.5,39.5C 50.1667,39.5 52.8333,39.5 55.5,39.5C 55.5,36.8333 55.5,34.1667 55.5,31.5C 58.1667,31.5 60.8333,31.5 63.5,31.5C 63.5,28.8333 63.5,26.1667 63.5,23.5C 66.1667,23.5 68.8333,23.5 71.5,23.5C 71.5,22.5 71.5,21.5 71.5,20.5C 74.1667,20.5 76.8333,20.5 79.5,20.5C 79.5,18.8333 79.5,17.1667 79.5,15.5C 82.1667,15.5 84.8333,15.5 87.5,15.5C 87.5,12.8333 87.5,10.1667 87.5,7.5C 92.8333,7.5 98.1667,7.5 103.5,7.5C 103.5,4.83333 103.5,2.16667 103.5,-0.5 Z"/></g>
<g><path style="opacity:1" fill="#fdfdfd" d="M 183.5,-0.5 C 244.5,-0.5 305.5,-0.5 366.5,-0.5C 366.5,2.16667 366.5,4.83333 366.5,7.5C 377.167,7.5 387.833,7.5 398.5,7.5C 398.5,10.1667 398.5,12.8333 398.5,15.5C 403.833,15.5 409.167,15.5 414.5,15.5C 414.5,18.1667 414.5,20.8333 414.5,23.5C 419.833,23.5 425.167,23.5 430.5,23.5C 430.495,27.5341 430.162,31.5341 429.5,35.5C 428.5,35.5 427.5,35.5 426.5,35.5C 426.025,38.0821 426.692,40.0821 428.5,41.5C 429.822,41.33 430.989,41.6634 432,42.5C 433.928,55.0163 436.095,67.3497 438.5,79.5C 438.527,85.0506 439.194,90.3839 440.5,95.5C 441.092,98.1272 441.425,100.794 441.5,103.5C 441.5,104.5 441.5,105.5 441.5,106.5C 443.167,106.5 444.833,106.5 446.5,106.5C 447.302,107.952 447.802,109.618 448,111.5C 448.899,104.47 449.899,97.4696 451,90.5C 451.337,94.8767 452.67,98.8767 455,102.5C 455.333,100.833 455.667,99.1667 456,97.5C 457,100.833 458,104.167 459,107.5C 461.471,108.403 463.638,107.737 465.5,105.5C 466.487,102.232 466.82,98.8984 466.5,95.5C 466.194,92.6146 466.527,89.9479 467.5,87.5C 468.222,87.0825 468.722,86.4158 469,85.5C 469.498,82.1832 469.665,78.8499 469.5,75.5C 469.401,72.7628 469.735,70.0961 470.5,67.5C 474.386,71.7957 475.386,76.7957 473.5,82.5C 473.577,84.299 474.077,85.9656 475,87.5C 475.174,76.4167 476.174,65.4167 478,54.5C 478.29,56.0441 478.956,57.3774 480,58.5C 480.333,56.5 480.667,54.5 481,52.5C 481.483,53.448 481.649,54.448 481.5,55.5C 485.745,55.7597 490.078,56.0931 494.5,56.5C 495.666,70.1545 495.833,83.8212 495,97.5C 492.215,98.2875 491.049,100.121 491.5,103C 491.354,105.034 492.02,106.701 493.5,108C 502.448,106.922 511.282,107.422 520,109.5C 522.865,108.521 525.365,106.854 527.5,104.5C 529.743,103.526 532.076,103.192 534.5,103.5C 534.5,106.167 534.5,108.833 534.5,111.5C 537.167,111.5 539.833,111.5 542.5,111.5C 542.5,116.833 542.5,122.167 542.5,127.5C 545.167,127.5 547.833,127.5 550.5,127.5C 550.5,130.167 550.5,132.833 550.5,135.5C 553.167,135.5 555.833,135.5 558.5,135.5C 558.179,141.026 558.512,146.36 559.5,151.5C 559.5,236.833 559.5,322.167 559.5,407.5C 558.512,412.64 558.179,417.974 558.5,423.5C 555.833,423.5 553.167,423.5 550.5,423.5C 550.5,426.167 550.5,428.833 550.5,431.5C 547.833,431.5 545.167,431.5 542.5,431.5C 542.26,434.579 542.593,437.579 543.5,440.5C 540.628,441.783 537.795,441.783 535,440.5C 534.25,441.126 533.416,441.626 532.5,442C 519.449,442.35 506.449,442.517 493.5,442.5C 490.107,441.128 486.773,440.795 483.5,441.5C 480.014,440.754 476.514,440.087 473,439.5C 469.551,440.388 466.217,440.721 463,440.5C 462.167,439 461,437.833 459.5,437C 461.619,436.658 461.953,435.825 460.5,434.5C 470.363,428.12 476.53,419.12 479,407.5C 479.667,338.167 479.667,268.833 479,199.5C 475.205,183.705 465.372,173.872 449.5,170C 418.168,169.5 386.835,169.333 355.5,169.5C 354.328,157.468 352.828,145.468 351,133.5C 347.017,123.85 339.85,118.35 329.5,117C 295.5,116.333 261.5,116.333 227.5,117C 218.986,118.848 212.819,123.682 209,131.5C 206.348,144.051 204.514,156.718 203.5,169.5C 194.833,169.5 186.167,169.5 177.5,169.5C 179.355,160.178 176.021,153.678 167.5,150C 152.833,149.333 138.167,149.333 123.5,150C 115.311,153.875 111.978,160.375 113.5,169.5C 95.5788,171.92 84.4121,181.92 80,199.5C 79.3333,268.833 79.3333,338.167 80,407.5C 82.2272,420.318 89.0605,429.651 100.5,435.5C 100.082,436.222 99.4158,436.722 98.5,437C 100.795,437.984 100.461,438.817 97.5,439.5C 94.4522,439.855 91.4522,439.189 88.5,437.5C 87.3044,437.846 87.3044,438.346 88.5,439C 84.9111,439.037 81.5778,439.87 78.5,441.5C 77.5,440.833 76.5,440.167 75.5,439.5C 72.7986,441.262 69.7986,442.262 66.5,442.5C 53.8604,442.317 41.1937,442.151 28.5,442C 27.3379,441.173 26.1712,440.34 25,439.5C 23.3197,440.547 21.4864,441.213 19.5,441.5C 17.0759,440.979 14.7426,440.312 12.5,439.5C 12.5,434.167 12.5,428.833 12.5,423.5C 11.1667,423.5 9.83333,423.5 8.5,423.5C 8.16667,444.833 7.83333,444.833 7.5,423.5C 6.5,423.5 5.5,423.5 4.5,423.5C 4.5,420.833 4.5,418.167 4.5,415.5C 3.16667,415.5 1.83333,415.5 0.5,415.5C 0.8064,418.385 0.473067,421.052 -0.5,423.5C -0.5,327.5 -0.5,231.5 -0.5,135.5C 0.473067,137.948 0.8064,140.615 0.5,143.5C 1.83333,143.5 3.16667,143.5 4.5,143.5C 4.5,140.833 4.5,138.167 4.5,135.5C 5.5,135.5 6.5,135.5 7.5,135.5C 7.83333,114.167 8.16667,114.167 8.5,135.5C 9.83333,135.5 11.1667,135.5 12.5,135.5C 12.5,130.167 12.5,124.833 12.5,119.5C 13.5,119.5 14.5,119.5 15.5,119.5C 15.8333,108.833 16.1667,108.833 16.5,119.5C 17.8333,119.5 19.1667,119.5 20.5,119.5C 20.5,116.833 20.5,114.167 20.5,111.5C 21.5,111.5 22.5,111.5 23.5,111.5C 23.8333,100.833 24.1667,100.833 24.5,111.5C 25.8333,111.5 27.1667,111.5 28.5,111.5C 28.5,108.833 28.5,106.167 28.5,103.5C 29.5,103.5 30.5,103.5 31.5,103.5C 31.8333,82.1667 32.1667,82.1667 32.5,103.5C 33.8333,103.5 35.1667,103.5 36.5,103.5C 36.5,98.1667 36.5,92.8333 36.5,87.5C 37.5,87.5 38.5,87.5 39.5,87.5C 39.8333,76.8333 40.1667,76.8333 40.5,87.5C 41.8333,87.5 43.1667,87.5 44.5,87.5C 44.5,84.8333 44.5,82.1667 44.5,79.5C 45.5,79.5 46.5,79.5 47.5,79.5C 47.8333,68.8333 48.1667,68.8333 48.5,79.5C 49.8333,79.5 51.1667,79.5 52.5,79.5C 52.5,76.8333 52.5,74.1667 52.5,71.5C 56.1667,71.5 59.8333,71.5 63.5,71.5C 63.8333,60.8333 64.1667,60.8333 64.5,71.5C 65.8333,71.5 67.1667,71.5 68.5,71.5C 68.5,68.8333 68.5,66.1667 68.5,63.5C 69.5,63.5 70.5,63.5 71.5,63.5C 71.8333,52.8333 72.1667,52.8333 72.5,63.5C 73.8333,63.5 75.1667,63.5 76.5,63.5C 76.5,60.8333 76.5,58.1667 76.5,55.5C 77.5,55.5 78.5,55.5 79.5,55.5C 79.8333,44.8333 80.1667,44.8333 80.5,55.5C 81.8333,55.5 83.1667,55.5 84.5,55.5C 84.5,52.8333 84.5,50.1667 84.5,47.5C 88.1667,47.5 91.8333,47.5 95.5,47.5C 95.8333,36.8333 96.1667,36.8333 96.5,47.5C 97.8333,47.5 99.1667,47.5 100.5,47.5C 100.5,44.8333 100.5,42.1667 100.5,39.5C 101.5,39.5 102.5,39.5 103.5,39.5C 103.833,28.8333 104.167,28.8333 104.5,39.5C 105.833,39.5 107.167,39.5 108.5,39.5C 108.5,36.8333 108.5,34.1667 108.5,31.5C 112.167,31.5 115.833,31.5 119.5,31.5C 119.833,20.8333 120.167,20.8333 120.5,31.5C 121.833,31.5 123.167,31.5 124.5,31.5C 124.5,28.8333 124.5,26.1667 124.5,23.5C 128.167,23.5 131.833,23.5 135.5,23.5C 135.833,12.8333 136.167,12.8333 136.5,23.5C 137.833,23.5 139.167,23.5 140.5,23.5C 140.5,20.8333 140.5,18.1667 140.5,15.5C 146.833,15.5 153.167,15.5 159.5,15.5C 159.833,4.83333 160.167,4.83333 160.5,15.5C 161.833,15.5 163.167,15.5 164.5,15.5C 164.5,12.8333 164.5,10.1667 164.5,7.5C 170.833,7.5 177.167,7.5 183.5,7.5C 183.5,4.83333 183.5,2.16667 183.5,-0.5 Z"/></g>
<g><path style="opacity:1" fill="#f0efee" d="M 455.5,-0.5 C 490.167,-0.5 524.833,-0.5 559.5,-0.5C 559.5,26.1667 559.5,52.8333 559.5,79.5C 556.833,79.5 554.167,79.5 551.5,79.5C 551.5,76.8333 551.5,74.1667 551.5,71.5C 548.833,71.5 546.167,71.5 543.5,71.5C 543.5,68.8333 543.5,66.1667 543.5,63.5C 541.833,63.5 540.167,63.5 538.5,63.5C 538.5,60.8333 538.5,58.1667 538.5,55.5C 536.799,55.0338 535.299,55.0338 534,55.5C 533.508,54.451 533.674,53.451 534.5,52.5C 533.194,51.0878 532.36,49.4211 532,47.5C 531.92,52.7171 531.753,58.0505 531.5,63.5C 530.167,63.5 528.833,63.5 527.5,63.5C 527.5,61.8333 527.5,60.1667 527.5,58.5C 521.136,56.0989 518.469,51.4322 519.5,44.5C 520.167,45.1667 520.833,45.8333 521.5,46.5C 521.5,47.1667 521.833,47.5 522.5,47.5C 522.993,49.8056 523.326,52.139 523.5,54.5C 525.483,54.8432 526.817,54.1765 527.5,52.5C 527.784,50.5853 527.451,48.9187 526.5,47.5C 525.949,44.1933 525.616,40.8599 525.5,37.5C 516.167,37.5 506.833,37.5 497.5,37.5C 493.5,37.5 489.5,37.5 485.5,37.5C 488.613,36.624 491.613,35.2907 494.5,33.5C 495.487,30.2317 495.82,26.8984 495.5,23.5C 492.833,23.5 490.167,23.5 487.5,23.5C 487.5,20.8333 487.5,18.1667 487.5,15.5C 484.833,15.5 482.167,15.5 479.5,15.5C 479.5,14.5 479.5,13.5 479.5,12.5C 476.833,12.5 474.167,12.5 471.5,12.5C 471.5,10.8333 471.5,9.16667 471.5,7.5C 466.167,7.5 460.833,7.5 455.5,7.5C 455.5,4.83333 455.5,2.16667 455.5,-0.5 Z"/></g>
<g><path style="opacity:1" fill="#df7342" d="M 497.5,37.5 C 506.833,37.5 516.167,37.5 525.5,37.5C 525.616,40.8599 525.949,44.1933 526.5,47.5C 525.194,44.8582 524.194,42.0249 523.5,39C 514.657,38.8296 505.99,38.3296 497.5,37.5 Z"/></g>
<g><path style="opacity:1" fill="#fcecd4" d="M 461.5,37.5 C 456.5,37.5 451.5,37.5 446.5,37.5C 446.5,38.8333 446.5,40.1667 446.5,41.5C 445.833,41.5 445.167,41.5 444.5,41.5C 444.5,40.1667 444.5,38.8333 444.5,37.5C 439.167,37.5 433.833,37.5 428.5,37.5C 428.5,38.8333 428.5,40.1667 428.5,41.5C 426.692,40.0821 426.025,38.0821 426.5,35.5C 427.5,35.5 428.5,35.5 429.5,35.5C 433.24,35.2408 436.906,35.5741 440.5,36.5C 441.386,35.675 441.719,34.675 441.5,33.5C 442.5,33.5 443.5,33.5 444.5,33.5C 444.5,34.5 444.5,35.5 444.5,36.5C 450.358,36.1778 456.025,36.5111 461.5,37.5 Z"/></g>
<g><path style="opacity:1" fill="#fde1c2" d="M 477.5,37.5 C 473.818,37.3347 470.152,37.5014 466.5,38C 465.306,40.6578 466.306,41.8244 469.5,41.5C 469.5,43.5 469.5,45.5 469.5,47.5C 469.167,47.5 468.833,47.5 468.5,47.5C 468.5,45.8333 468.5,44.1667 468.5,42.5C 466.379,42.6747 464.379,42.3414 462.5,41.5C 462.5,40.1667 462.5,38.8333 462.5,37.5C 467.645,36.3093 472.645,36.3093 477.5,37.5 Z"/></g>
<g><path style="opacity:1" fill="#f7f7f1" d="M 462.5,41.5 C 464.379,42.3414 466.379,42.6747 468.5,42.5C 468.5,44.1667 468.5,45.8333 468.5,47.5C 467.616,52.804 466.949,58.1374 466.5,63.5C 465.419,66.6267 464.753,69.9601 464.5,73.5C 463.833,73.1667 463.167,72.8333 462.5,72.5C 461.588,66.6881 460.588,61.0214 459.5,55.5C 459.331,50.8189 458.998,46.1522 458.5,41.5C 459.833,41.5 461.167,41.5 462.5,41.5 Z"/></g>
<g><path style="opacity:1" fill="#ee8550" d="M 401.5,38.5 C 394.825,38.3337 388.158,38.5004 381.5,39C 383.833,40.6667 386.167,42.3333 388.5,44C 387.975,44.6924 387.308,45.1924 386.5,45.5C 385.795,63.8547 385.128,82.188 384.5,100.5C 384.167,100.5 383.833,100.5 383.5,100.5C 383.5,80.8333 383.5,61.1667 383.5,41.5C 381.833,41.5 380.167,41.5 378.5,41.5C 378.5,40.1667 378.5,38.8333 378.5,37.5C 386.352,37.1746 394.018,37.508 401.5,38.5 Z"/></g>
<g><path style="opacity:1" fill="#f96824" d="M 485.5,37.5 C 489.5,37.5 493.5,37.5 497.5,37.5C 505.99,38.3296 514.657,38.8296 523.5,39C 524.194,42.0249 525.194,44.8582 526.5,47.5C 527.451,48.9187 527.784,50.5853 527.5,52.5C 526.761,52.631 526.094,52.4643 525.5,52C 525.085,49.9737 524.085,48.4737 522.5,47.5C 521.833,47.5 521.5,47.1667 521.5,46.5C 521.349,42.686 519.349,41.0193 515.5,41.5C 513.5,41.5 511.5,41.5 509.5,41.5C 509.5,61.5 509.5,81.5 509.5,101.5C 511.167,101.5 512.833,101.5 514.5,101.5C 515.684,102.688 515.684,103.855 514.5,105C 508.175,105.5 501.842,105.666 495.5,105.5C 495.5,104.5 495.5,103.5 495.5,102.5C 497.415,102.784 499.081,102.451 500.5,101.5C 501.497,81.6736 501.83,61.6736 501.5,41.5C 497.818,41.3347 494.152,41.5014 490.5,42C 489.62,43.3561 489.286,44.8561 489.5,46.5C 488.577,48.767 487.744,51.1003 487,53.5C 485.644,54.3802 484.144,54.7135 482.5,54.5C 483.775,48.9122 484.775,43.2455 485.5,37.5 Z"/></g>
<g><path style="opacity:1" fill="#e08659" d="M 515.5,41.5 C 519.349,41.0193 521.349,42.686 521.5,46.5C 520.833,45.8333 520.167,45.1667 519.5,44.5C 519.158,43.6618 518.492,43.3284 517.5,43.5C 516.833,42.8333 516.167,42.1667 515.5,41.5 Z"/></g>
<g><path style="opacity:1" fill="#f3864b" d="M 440.5,47.5 C 442.078,52.5826 442.745,57.916 442.5,63.5C 441.194,58.3839 440.527,53.0506 440.5,47.5 Z"/></g>
<g><path style="opacity:1" fill="#e57f50" d="M 468.5,47.5 C 468.833,47.5 469.167,47.5 469.5,47.5C 469.739,53.1843 468.739,58.5176 466.5,63.5C 466.949,58.1374 467.616,52.804 468.5,47.5 Z"/></g>
<g><path style="opacity:1" fill="#f8f4ec" d="M 444.5,41.5 C 445.167,41.5 445.833,41.5 446.5,41.5C 447.833,41.5 449.167,41.5 450.5,41.5C 451.669,48.8247 451.669,56.1581 450.5,63.5C 448.511,67.4969 447.511,71.8303 447.5,76.5C 447.737,77.791 447.404,78.791 446.5,79.5C 445.225,75.8977 444.225,72.231 443.5,68.5C 443.784,66.5853 443.451,64.9187 442.5,63.5C 442.745,57.916 442.078,52.5826 440.5,47.5C 440.5,45.5 440.5,43.5 440.5,41.5C 441.833,41.5 443.167,41.5 444.5,41.5 Z"/></g>
<g><path style="opacity:1" fill="#f7f7f7" d="M 366.5,-0.5 C 396.167,-0.5 425.833,-0.5 455.5,-0.5C 455.5,2.16667 455.5,4.83333 455.5,7.5C 460.833,7.5 466.167,7.5 471.5,7.5C 471.5,9.16667 471.5,10.8333 471.5,12.5C 474.167,12.5 476.833,12.5 479.5,12.5C 479.5,13.5 479.5,14.5 479.5,15.5C 482.167,15.5 484.833,15.5 487.5,15.5C 487.5,18.1667 487.5,20.8333 487.5,23.5C 490.167,23.5 492.833,23.5 495.5,23.5C 495.82,26.8984 495.487,30.2317 494.5,33.5C 491.613,35.2907 488.613,36.624 485.5,37.5C 484.775,43.2455 483.775,48.9122 482.5,54.5C 484.144,54.7135 485.644,54.3802 487,53.5C 487.744,51.1003 488.577,48.767 489.5,46.5C 490.249,45.469 490.915,44.3024 491.5,43C 494.482,42.502 497.482,42.3354 500.5,42.5C 500.5,62.1667 500.5,81.8333 500.5,101.5C 498.167,101.5 495.833,101.5 493.5,101.5C 493.5,103.167 493.5,104.833 493.5,106.5C 501.352,106.825 509.018,106.492 516.5,105.5C 518.256,104.448 518.923,102.781 518.5,100.5C 515.833,100.5 513.167,100.5 510.5,100.5C 510.5,81.1667 510.5,61.8333 510.5,42.5C 512.806,42.9926 515.139,43.3259 517.5,43.5C 518.492,43.3284 519.158,43.6618 519.5,44.5C 518.469,51.4322 521.136,56.0989 527.5,58.5C 527.5,60.1667 527.5,61.8333 527.5,63.5C 528.833,63.5 530.167,63.5 531.5,63.5C 531.753,58.0505 531.92,52.7171 532,47.5C 532.36,49.4211 533.194,51.0878 534.5,52.5C 533.674,53.451 533.508,54.451 534,55.5C 535.299,55.0338 536.799,55.0338 538.5,55.5C 538.5,58.1667 538.5,60.8333 538.5,63.5C 540.167,63.5 541.833,63.5 543.5,63.5C 543.5,66.1667 543.5,68.8333 543.5,71.5C 546.167,71.5 548.833,71.5 551.5,71.5C 551.5,74.1667 551.5,76.8333 551.5,79.5C 554.167,79.5 556.833,79.5 559.5,79.5C 559.5,103.5 559.5,127.5 559.5,151.5C 558.512,146.36 558.179,141.026 558.5,135.5C 555.833,135.5 553.167,135.5 550.5,135.5C 550.5,132.833 550.5,130.167 550.5,127.5C 547.833,127.5 545.167,127.5 542.5,127.5C 542.5,122.167 542.5,116.833 542.5,111.5C 539.833,111.5 537.167,111.5 534.5,111.5C 534.5,108.833 534.5,106.167 534.5,103.5C 532.076,103.192 529.743,103.526 527.5,104.5C 525.365,106.854 522.865,108.521 520,109.5C 511.282,107.422 502.448,106.922 493.5,108C 492.02,106.701 491.354,105.034 491.5,103C 491.049,100.121 492.215,98.2875 495,97.5C 495.833,83.8212 495.666,70.1545 494.5,56.5C 490.078,56.0931 485.745,55.7597 481.5,55.5C 481.649,54.448 481.483,53.448 481,52.5C 480.667,54.5 480.333,56.5 480,58.5C 478.956,57.3774 478.29,56.0441 478,54.5C 476.174,65.4167 475.174,76.4167 475,87.5C 474.077,85.9656 473.577,84.299 473.5,82.5C 475.386,76.7957 474.386,71.7957 470.5,67.5C 471.678,59.1086 473.178,50.7753 475,42.5C 476.356,41.6198 477.856,41.2865 479.5,41.5C 479.843,39.5168 479.176,38.1834 477.5,37.5C 472.645,36.3093 467.645,36.3093 462.5,37.5C 462.167,37.5 461.833,37.5 461.5,37.5C 456.025,36.5111 450.358,36.1778 444.5,36.5C 444.5,35.5 444.5,34.5 444.5,33.5C 443.5,33.5 442.5,33.5 441.5,33.5C 441.719,34.675 441.386,35.675 440.5,36.5C 436.906,35.5741 433.24,35.2408 429.5,35.5C 430.162,31.5341 430.495,27.5341 430.5,23.5C 425.167,23.5 419.833,23.5 414.5,23.5C 414.5,20.8333 414.5,18.1667 414.5,15.5C 409.167,15.5 403.833,15.5 398.5,15.5C 398.5,12.8333 398.5,10.1667 398.5,7.5C 387.833,7.5 377.167,7.5 366.5,7.5C 366.5,4.83333 366.5,2.16667 366.5,-0.5 Z"/></g>
<g><path style="opacity:1" fill="#dc8257" d="M 522.5,47.5 C 524.085,48.4737 525.085,49.9737 525.5,52C 526.094,52.4643 526.761,52.631 527.5,52.5C 526.817,54.1765 525.483,54.8432 523.5,54.5C 523.326,52.139 522.993,49.8056 522.5,47.5 Z"/></g>
<g><path style="opacity:1" fill="#f96924" d="M 444.5,41.5 C 443.167,41.5 441.833,41.5 440.5,41.5C 440.5,43.5 440.5,45.5 440.5,47.5C 440.527,53.0506 441.194,58.3839 442.5,63.5C 443.451,64.9187 443.784,66.5853 443.5,68.5C 444.254,74.2087 444.421,79.8754 444,85.5C 444.414,85.9574 444.914,86.2907 445.5,86.5C 446.474,84.2573 446.808,81.924 446.5,79.5C 447.404,78.791 447.737,77.791 447.5,76.5C 448.232,75.1917 449.066,73.8584 450,72.5C 450.498,75.8168 450.665,79.1501 450.5,82.5C 449.069,88.4222 448.069,94.4222 447.5,100.5C 445.896,101.287 445.229,102.62 445.5,104.5C 444.041,104.567 442.708,104.234 441.5,103.5C 441.425,100.794 441.092,98.1272 440.5,95.5C 440.745,89.916 440.078,84.5826 438.5,79.5C 436.095,67.3497 433.928,55.0163 432,42.5C 430.989,41.6634 429.822,41.33 428.5,41.5C 428.5,40.1667 428.5,38.8333 428.5,37.5C 433.833,37.5 439.167,37.5 444.5,37.5C 444.5,38.8333 444.5,40.1667 444.5,41.5 Z"/></g>
<g><path style="opacity:1" fill="#f86b27" d="M 477.5,37.5 C 479.176,38.1834 479.843,39.5168 479.5,41.5C 477.856,41.2865 476.356,41.6198 475,42.5C 473.178,50.7753 471.678,59.1086 470.5,67.5C 469.735,70.0961 469.401,72.7628 469.5,75.5C 468.388,77.5994 467.721,79.9327 467.5,82.5C 466.213,81.1286 465.547,79.2953 465.5,77C 466.04,72.5113 466.374,68.0113 466.5,63.5C 468.739,58.5176 469.739,53.1843 469.5,47.5C 469.5,45.5 469.5,43.5 469.5,41.5C 466.306,41.8244 465.306,40.6578 466.5,38C 470.152,37.5014 473.818,37.3347 477.5,37.5 Z"/></g>
<g><path style="opacity:1" fill="#f0763f" d="M 450.5,63.5 C 450.701,73.9694 451.368,73.9694 452.5,63.5C 453.5,63.5 454.5,63.5 455.5,63.5C 455.5,67.1667 455.5,70.8333 455.5,74.5C 454.698,73.0484 454.198,71.3817 454,69.5C 452.826,73.9418 451.659,78.2751 450.5,82.5C 450.665,79.1501 450.498,75.8168 450,72.5C 449.066,73.8584 448.232,75.1917 447.5,76.5C 447.511,71.8303 448.511,67.4969 450.5,63.5 Z"/></g>
<g><path style="opacity:1" fill="#f0a17b" d="M 500.5,101.5 C 500.5,81.8333 500.5,62.1667 500.5,42.5C 497.482,42.3354 494.482,42.502 491.5,43C 490.915,44.3024 490.249,45.469 489.5,46.5C 489.286,44.8561 489.62,43.3561 490.5,42C 494.152,41.5014 497.818,41.3347 501.5,41.5C 501.83,61.6736 501.497,81.6736 500.5,101.5 Z"/></g>
<g><path style="opacity:1" fill="#e58860" d="M 438.5,79.5 C 440.078,84.5826 440.745,89.916 440.5,95.5C 439.194,90.3839 438.527,85.0506 438.5,79.5 Z"/></g>
<g><path style="opacity:1" fill="#f48149" d="M 443.5,68.5 C 444.225,72.231 445.225,75.8977 446.5,79.5C 446.808,81.924 446.474,84.2573 445.5,86.5C 444.914,86.2907 444.414,85.9574 444,85.5C 444.421,79.8754 444.254,74.2087 443.5,68.5 Z"/></g>
<g><path style="opacity:1" fill="#f47139" d="M 459.5,55.5 C 460.588,61.0214 461.588,66.6881 462.5,72.5C 462.387,81 463.053,81.3333 464.5,73.5C 464.753,69.9601 465.419,66.6267 466.5,63.5C 466.374,68.0113 466.04,72.5113 465.5,77C 465.547,79.2953 466.213,81.1286 467.5,82.5C 467.5,84.1667 467.5,85.8333 467.5,87.5C 466.527,89.9479 466.194,92.6146 466.5,95.5C 465.5,97.5 464.5,99.5 463.5,101.5C 464.167,96.8405 464.333,92.1738 464,87.5C 463.026,89.8776 462.359,89.5443 462,86.5C 461.841,81.0838 461.174,75.7504 460,70.5C 459.667,73.5 459.333,76.5 459,79.5C 458.501,71.4879 458.667,63.4879 459.5,55.5 Z"/></g>
<g><path style="opacity:1" fill="#f8c694" d="M 462.5,72.5 C 463.167,72.8333 463.833,73.1667 464.5,73.5C 463.053,81.3333 462.387,81 462.5,72.5 Z"/></g>
<g><path style="opacity:1" fill="#fcf4e7" d="M 455.5,74.5 C 456.7,84.1303 457.867,93.7969 459,103.5C 460.049,105.107 461.549,105.773 463.5,105.5C 463.5,104.167 463.5,102.833 463.5,101.5C 464.5,99.5 465.5,97.5 466.5,95.5C 466.82,98.8984 466.487,102.232 465.5,105.5C 463.638,107.737 461.471,108.403 459,107.5C 458,104.167 457,100.833 456,97.5C 455.667,99.1667 455.333,100.833 455,102.5C 452.67,98.8767 451.337,94.8767 451,90.5C 449.899,97.4696 448.899,104.47 448,111.5C 447.802,109.618 447.302,107.952 446.5,106.5C 446.833,104.5 447.167,102.5 447.5,100.5C 448.069,94.4222 449.069,88.4222 450.5,82.5C 451.659,78.2751 452.826,73.9418 454,69.5C 454.198,71.3817 454.698,73.0484 455.5,74.5 Z"/></g>
<g><path style="opacity:1" fill="#ffe5bb" d="M 469.5,75.5 C 469.665,78.8499 469.498,82.1832 469,85.5C 468.722,86.4158 468.222,87.0825 467.5,87.5C 467.5,85.8333 467.5,84.1667 467.5,82.5C 467.721,79.9327 468.388,77.5994 469.5,75.5 Z"/></g>
<g><path style="opacity:1" fill="#feebd4" d="M 515.5,41.5 C 516.167,42.1667 516.833,42.8333 517.5,43.5C 515.139,43.3259 512.806,42.9926 510.5,42.5C 510.5,61.8333 510.5,81.1667 510.5,100.5C 513.167,100.5 515.833,100.5 518.5,100.5C 518.923,102.781 518.256,104.448 516.5,105.5C 516.843,103.517 516.176,102.183 514.5,101.5C 512.833,101.5 511.167,101.5 509.5,101.5C 509.5,81.5 509.5,61.5 509.5,41.5C 511.5,41.5 513.5,41.5 515.5,41.5 Z"/></g>
<g><path style="opacity:1" fill="#f96a2a" d="M 401.5,38.5 C 409.172,38.9961 415.339,42.3295 420,48.5C 426.189,64.2619 425.856,79.9286 419,95.5C 416.495,98.8526 413.329,101.186 409.5,102.5C 407.473,102.662 405.473,102.495 403.5,102C 405.063,101.241 406.063,100.074 406.5,98.5C 409.577,96.2416 411.744,93.2416 413,89.5C 414.471,79.2067 414.804,68.8733 414,58.5C 413.392,50.2421 409.225,44.9088 401.5,42.5C 398.713,41.5233 395.713,41.19 392.5,41.5C 392.17,61.6736 392.503,81.6736 393.5,101.5C 396.358,102.166 399.358,102.833 402.5,103.5C 395.167,104.833 387.833,104.833 380.5,103.5C 382.332,102.943 383.665,101.943 384.5,100.5C 385.128,82.188 385.795,63.8547 386.5,45.5C 387.308,45.1924 387.975,44.6924 388.5,44C 386.167,42.3333 383.833,40.6667 381.5,39C 388.158,38.5004 394.825,38.3337 401.5,38.5 Z"/></g>
<g><path style="opacity:1" fill="#fafbf7" d="M 401.5,42.5 C 409.225,44.9088 413.392,50.2421 414,58.5C 414.804,68.8733 414.471,79.2067 413,89.5C 411.744,93.2416 409.577,96.2416 406.5,98.5C 402.832,100.721 398.832,101.721 394.5,101.5C 393.513,81.9093 393.179,62.2426 393.5,42.5C 396.167,42.5 398.833,42.5 401.5,42.5 Z"/></g>
<g><path style="opacity:1" fill="#fecdb3" d="M 401.5,42.5 C 398.833,42.5 396.167,42.5 393.5,42.5C 393.179,62.2426 393.513,81.9093 394.5,101.5C 394.167,101.5 393.833,101.5 393.5,101.5C 392.503,81.6736 392.17,61.6736 392.5,41.5C 395.713,41.19 398.713,41.5233 401.5,42.5 Z"/></g>
<g><path style="opacity:1" fill="#f96a27" d="M 461.5,37.5 C 461.833,37.5 462.167,37.5 462.5,37.5C 462.5,38.8333 462.5,40.1667 462.5,41.5C 461.167,41.5 459.833,41.5 458.5,41.5C 458.998,46.1522 459.331,50.8189 459.5,55.5C 458.667,63.4879 458.501,71.4879 459,79.5C 459.333,76.5 459.667,73.5 460,70.5C 461.174,75.7504 461.841,81.0838 462,86.5C 462.359,89.5443 463.026,89.8776 464,87.5C 464.333,92.1738 464.167,96.8405 463.5,101.5C 463.5,102.833 463.5,104.167 463.5,105.5C 461.549,105.773 460.049,105.107 459,103.5C 457.867,93.7969 456.7,84.1303 455.5,74.5C 455.5,70.8333 455.5,67.1667 455.5,63.5C 454.5,63.5 453.5,63.5 452.5,63.5C 451.368,73.9694 450.701,73.9694 450.5,63.5C 451.669,56.1581 451.669,48.8247 450.5,41.5C 449.167,41.5 447.833,41.5 446.5,41.5C 446.5,40.1667 446.5,38.8333 446.5,37.5C 451.5,37.5 456.5,37.5 461.5,37.5 Z"/></g>
<g><path style="opacity:1" fill="#ed9263" d="M 447.5,100.5 C 447.167,102.5 446.833,104.5 446.5,106.5C 444.833,106.5 443.167,106.5 441.5,106.5C 441.5,105.5 441.5,104.5 441.5,103.5C 442.708,104.234 444.041,104.567 445.5,104.5C 445.229,102.62 445.896,101.287 447.5,100.5 Z"/></g>
<g><path style="opacity:1" fill="#ed703b" d="M 406.5,98.5 C 406.063,100.074 405.063,101.241 403.5,102C 405.473,102.495 407.473,102.662 409.5,102.5C 406.619,104.68 403.286,105.68 399.5,105.5C 392.5,105.5 385.5,105.5 378.5,105.5C 378.433,104.041 378.766,102.708 379.5,101.5C 381.099,101.768 382.432,101.434 383.5,100.5C 383.833,100.5 384.167,100.5 384.5,100.5C 383.665,101.943 382.332,102.943 380.5,103.5C 387.833,104.833 395.167,104.833 402.5,103.5C 399.358,102.833 396.358,102.166 393.5,101.5C 393.833,101.5 394.167,101.5 394.5,101.5C 398.832,101.721 402.832,100.721 406.5,98.5 Z"/></g>
<g><path style="opacity:1" fill="#fab396" d="M 379.5,101.5 C 378.766,102.708 378.433,104.041 378.5,105.5C 385.5,105.5 392.5,105.5 399.5,105.5C 392.352,106.492 385.019,106.825 377.5,106.5C 377.077,104.219 377.744,102.552 379.5,101.5 Z"/></g>
<g><path style="opacity:1" fill="#f2a787" d="M 500.5,101.5 C 499.081,102.451 497.415,102.784 495.5,102.5C 495.5,103.5 495.5,104.5 495.5,105.5C 501.842,105.666 508.175,105.5 514.5,105C 515.684,103.855 515.684,102.688 514.5,101.5C 516.176,102.183 516.843,103.517 516.5,105.5C 509.018,106.492 501.352,106.825 493.5,106.5C 493.5,104.833 493.5,103.167 493.5,101.5C 495.833,101.5 498.167,101.5 500.5,101.5 Z"/></g>
<g><path style="opacity:1" fill="#161616" d="M 460.5,434.5 C 455.722,436.612 450.722,437.945 445.5,438.5C 334.5,438.5 223.5,438.5 112.5,438.5C 108.397,437.91 104.397,436.91 100.5,435.5C 89.0605,429.651 82.2272,420.318 80,407.5C 79.3333,338.167 79.3333,268.833 80,199.5C 84.4121,181.92 95.5788,171.92 113.5,169.5C 111.978,160.375 115.311,153.875 123.5,150C 138.167,149.333 152.833,149.333 167.5,150C 176.021,153.678 179.355,160.178 177.5,169.5C 186.167,169.5 194.833,169.5 203.5,169.5C 204.514,156.718 206.348,144.051 209,131.5C 212.819,123.682 218.986,118.848 227.5,117C 261.5,116.333 295.5,116.333 329.5,117C 339.85,118.35 347.017,123.85 351,133.5C 352.828,145.468 354.328,157.468 355.5,169.5C 386.835,169.333 418.168,169.5 449.5,170C 465.372,173.872 475.205,183.705 479,199.5C 479.667,268.833 479.667,338.167 479,407.5C 476.53,419.12 470.363,428.12 460.5,434.5 Z"/></g>
<g><path style="opacity:1" fill="#f7f7f7" d="M 267.5,183.5 C 326.645,181.975 368.479,207.975 393,261.5C 408.166,305.838 401.499,346.504 373,383.5C 330.287,428.637 280.454,438.804 223.5,414C 176.751,387.177 154.917,346.677 158,292.5C 166.763,238.471 197.263,203.304 249.5,187C 255.634,185.792 261.634,184.626 267.5,183.5 Z"/></g>
<g><path style="opacity:1" fill="#f6f6f6" d="M 392.5,197.5 C 408.837,197.333 425.17,197.5 441.5,198C 447.645,201.213 449.145,206.046 446,212.5C 444.59,213.787 443.09,214.954 441.5,216C 425.167,216.667 408.833,216.667 392.5,216C 387.365,212.945 385.532,208.445 387,202.5C 388.406,200.256 390.239,198.59 392.5,197.5 Z"/></g>
<g><path style="opacity:1" fill="#161616" d="M 265.5,200.5 C 318.434,197.368 355.934,219.702 378,267.5C 392.982,314.158 382.482,353.991 346.5,387C 313.46,411.911 277.46,417.244 238.5,403C 201.349,385.497 179.849,356.33 174,315.5C 172.163,270.002 190.663,235.502 229.5,212C 241.147,206.597 253.147,202.764 265.5,200.5 Z"/></g>
<g><path style="opacity:1" fill="#fcfcfc" d="M 268.5,231.5 C 302.983,229.32 328.817,242.986 346,272.5C 359.876,307.488 353.042,337.655 325.5,363C 306.029,377.229 284.363,381.896 260.5,377C 223.535,364.014 205.368,337.847 206,298.5C 211.916,262.089 232.749,239.755 268.5,231.5 Z"/></g>
<g><path style="opacity:1" fill="#171717" d="M 270.5,243.5 C 286.013,241.836 300.513,244.836 314,252.5C 317.33,259.257 315.497,263.591 308.5,265.5C 273.986,257.203 249.486,269.203 235,301.5C 234.257,305.972 233.09,310.305 231.5,314.5C 225.968,319.075 221.802,318.075 219,311.5C 218.657,282.355 231.49,261.188 257.5,248C 262.002,246.635 266.336,245.135 270.5,243.5 Z"/></g>
<g><path style="opacity:1" fill="#f6f6f6" d="M 559.5,407.5 C 559.5,431.5 559.5,455.5 559.5,479.5C 556.833,479.5 554.167,479.5 551.5,479.5C 551.5,482.167 551.5,484.833 551.5,487.5C 548.833,487.5 546.167,487.5 543.5,487.5C 543.5,490.167 543.5,492.833 543.5,495.5C 540.833,495.5 538.167,495.5 535.5,495.5C 535.5,498.167 535.5,500.833 535.5,503.5C 532.833,503.5 530.167,503.5 527.5,503.5C 527.5,506.167 527.5,508.833 527.5,511.5C 524.833,511.5 522.167,511.5 519.5,511.5C 519.5,514.167 519.5,516.833 519.5,519.5C 514.167,519.5 508.833,519.5 503.5,519.5C 503.5,522.167 503.5,524.833 503.5,527.5C 500.833,527.5 498.167,527.5 495.5,527.5C 495.5,530.167 495.5,532.833 495.5,535.5C 492.833,535.5 490.167,535.5 487.5,535.5C 487.5,538.167 487.5,540.833 487.5,543.5C 484.833,543.5 482.167,543.5 479.5,543.5C 479.5,544.5 479.5,545.5 479.5,546.5C 476.833,546.5 474.167,546.5 471.5,546.5C 471.5,548.167 471.5,549.833 471.5,551.5C 466.167,551.5 460.833,551.5 455.5,551.5C 455.5,553.833 455.5,556.167 455.5,558.5C 425.833,558.5 396.167,558.5 366.5,558.5C 366.5,556.167 366.5,553.833 366.5,551.5C 374.5,551.5 382.5,551.5 390.5,551.5C 390.5,548.833 390.5,546.167 390.5,543.5C 398.5,543.5 406.5,543.5 414.5,543.5C 414.5,540.833 414.5,538.167 414.5,535.5C 419.833,535.5 425.167,535.5 430.5,535.5C 430.5,532.833 430.5,530.167 430.5,527.5C 427.833,527.5 425.167,527.5 422.5,527.5C 423.177,522.358 421.51,518.191 417.5,515C 411.719,516.462 405.719,516.795 399.5,516C 392.974,506.986 386.307,498.152 379.5,489.5C 383.731,489.686 386.565,491.686 388,495.5C 388.494,493.866 388.66,492.199 388.5,490.5C 407.064,489.954 425.564,490.62 444,492.5C 446.47,492.66 448.636,491.993 450.5,490.5C 451.974,491.436 452.974,492.77 453.5,494.5C 460.803,495.497 468.137,495.831 475.5,495.5C 475.557,490.318 476.224,490.318 477.5,495.5C 478.822,486.342 478.822,477.342 477.5,468.5C 477.946,465.99 477.28,463.99 475.5,462.5C 472.008,456.751 467.008,452.751 460.5,450.5C 458.579,449.637 456.579,448.971 454.5,448.5C 455.609,447.71 456.942,447.21 458.5,447C 457.034,446.365 455.7,445.531 454.5,444.5C 453.554,444.987 452.554,445.32 451.5,445.5C 443.481,443.8 435.481,443.134 427.5,443.5C 421.184,442.732 414.851,442.065 408.5,441.5C 406.772,441.59 405.106,441.923 403.5,442.5C 387.863,441.699 372.197,440.866 356.5,440C 386.336,439.832 416.003,439.332 445.5,438.5C 450.722,437.945 455.722,436.612 460.5,434.5C 461.953,435.825 461.619,436.658 459.5,437C 461,437.833 462.167,439 463,440.5C 466.217,440.721 469.551,440.388 473,439.5C 476.514,440.087 480.014,440.754 483.5,441.5C 486.773,440.795 490.107,441.128 493.5,442.5C 506.449,442.517 519.449,442.35 532.5,442C 533.416,441.626 534.25,441.126 535,440.5C 537.795,441.783 540.628,441.783 543.5,440.5C 542.593,437.579 542.26,434.579 542.5,431.5C 545.167,431.5 547.833,431.5 550.5,431.5C 550.5,428.833 550.5,426.167 550.5,423.5C 553.167,423.5 555.833,423.5 558.5,423.5C 558.179,417.974 558.512,412.64 559.5,407.5 Z"/></g>
<g><path style="opacity:1" fill="#f6f6f6" d="M 100.5,435.5 C 104.397,436.91 108.397,437.91 112.5,438.5C 132.329,439.332 152.329,439.832 172.5,440C 162.814,440.244 153.147,440.744 143.5,441.5C 124.664,441.52 105.664,442.686 86.5,445C 84.444,445.311 82.444,445.811 80.5,446.5C 79.479,447.002 79.3123,447.668 80,448.5C 82.9827,450.566 86.1494,451.066 89.5,450C 86.8179,452.33 87.1512,452.83 90.5,451.5C 91.2975,451.957 91.6309,452.624 91.5,453.5C 88.1392,455.527 85.4725,458.194 83.5,461.5C 82.0735,463.148 81.2401,465.148 81,467.5C 80.5012,471.486 80.3345,475.486 80.5,479.5C 79.9272,487.035 80.7605,494.368 83,501.5C 83.5431,499.369 84.3764,497.369 85.5,495.5C 90.6521,495.621 95.9854,495.621 101.5,495.5C 101.491,493.692 101.991,492.025 103,490.5C 105.554,491.771 108.387,492.438 111.5,492.5C 122.134,491.39 132.801,490.723 143.5,490.5C 151.9,490.516 160.066,491.183 168,492.5C 170.309,491.025 172.476,489.358 174.5,487.5C 174.833,488 175.167,488.5 175.5,489C 174.387,490.394 173.053,491.561 171.5,492.5C 172.689,493.429 174.022,493.762 175.5,493.5C 175.179,495.048 174.179,495.715 172.5,495.5C 172.649,496.552 172.483,497.552 172,498.5C 166.908,503.434 162.742,509.101 159.5,515.5C 153.862,516.33 148.196,516.83 142.5,517C 139.635,519.286 136.302,520.12 132.5,519.5C 132.5,524.833 132.5,530.167 132.5,535.5C 136.167,535.5 139.833,535.5 143.5,535.5C 143.833,546.167 144.167,546.167 144.5,535.5C 145.833,535.5 147.167,535.5 148.5,535.5C 148.5,538.167 148.5,540.833 148.5,543.5C 152.167,543.5 155.833,543.5 159.5,543.5C 159.833,554.167 160.167,554.167 160.5,543.5C 161.833,543.5 163.167,543.5 164.5,543.5C 164.5,546.167 164.5,548.833 164.5,551.5C 173.5,551.5 182.5,551.5 191.5,551.5C 191.5,553.833 191.5,556.167 191.5,558.5C 162.167,558.5 132.833,558.5 103.5,558.5C 103.5,556.167 103.5,553.833 103.5,551.5C 100.833,551.5 98.1667,551.5 95.5,551.5C 95.5,548.833 95.5,546.167 95.5,543.5C 92.8333,543.5 90.1667,543.5 87.5,543.5C 87.5,544.5 87.5,545.5 87.5,546.5C 84.8333,546.5 82.1667,546.5 79.5,546.5C 79.5,542.833 79.5,539.167 79.5,535.5C 76.8333,535.5 74.1667,535.5 71.5,535.5C 71.5,532.833 71.5,530.167 71.5,527.5C 66.1667,527.5 60.8333,527.5 55.5,527.5C 55.5,524.833 55.5,522.167 55.5,519.5C 52.8333,519.5 50.1667,519.5 47.5,519.5C 47.5,516.833 47.5,514.167 47.5,511.5C 44.8333,511.5 42.1667,511.5 39.5,511.5C 39.5,508.833 39.5,506.167 39.5,503.5C 36.8333,503.5 34.1667,503.5 31.5,503.5C 31.5,500.833 31.5,498.167 31.5,495.5C 28.8333,495.5 26.1667,495.5 23.5,495.5C 23.5,492.833 23.5,490.167 23.5,487.5C 20.8333,487.5 18.1667,487.5 15.5,487.5C 15.5,484.833 15.5,482.167 15.5,479.5C 12.8333,479.5 10.1667,479.5 7.5,479.5C 7.5,476.833 7.5,474.167 7.5,471.5C 4.83333,471.5 2.16667,471.5 -0.5,471.5C -0.5,455.5 -0.5,439.5 -0.5,423.5C 0.473067,421.052 0.8064,418.385 0.5,415.5C 1.83333,415.5 3.16667,415.5 4.5,415.5C 4.5,418.167 4.5,420.833 4.5,423.5C 5.5,423.5 6.5,423.5 7.5,423.5C 7.83333,444.833 8.16667,444.833 8.5,423.5C 9.83333,423.5 11.1667,423.5 12.5,423.5C 12.5,428.833 12.5,434.167 12.5,439.5C 14.7426,440.312 17.0759,440.979 19.5,441.5C 21.4864,441.213 23.3197,440.547 25,439.5C 26.1712,440.34 27.3379,441.173 28.5,442C 41.1937,442.151 53.8604,442.317 66.5,442.5C 69.7986,442.262 72.7986,441.262 75.5,439.5C 76.5,440.167 77.5,440.833 78.5,441.5C 81.5778,439.87 84.9111,439.037 88.5,439C 87.3044,438.346 87.3044,437.846 88.5,437.5C 91.4522,439.189 94.4522,439.855 97.5,439.5C 100.461,438.817 100.795,437.984 98.5,437C 99.4158,436.722 100.082,436.222 100.5,435.5 Z"/></g>
<g><path style="opacity:1" fill="#e3e3e3" d="M 112.5,438.5 C 223.5,438.5 334.5,438.5 445.5,438.5C 416.003,439.332 386.336,439.832 356.5,440C 372.197,440.866 387.863,441.699 403.5,442.5C 405.106,441.923 406.772,441.59 408.5,441.5C 414.851,442.065 421.184,442.732 427.5,443.5C 435.481,443.134 443.481,443.8 451.5,445.5C 452.554,445.32 453.554,444.987 454.5,444.5C 455.7,445.531 457.034,446.365 458.5,447C 456.942,447.21 455.609,447.71 454.5,448.5C 448.879,447.646 443.212,447.313 437.5,447.5C 437.082,446.778 436.416,446.278 435.5,446C 431.247,445.8 427.08,445.3 423,444.5C 421.938,445.097 420.772,445.43 419.5,445.5C 411.576,444.004 403.576,443.171 395.5,443C 316.598,438.875 237.765,439.708 159,445.5C 157.774,445.355 156.607,445.022 155.5,444.5C 151.261,445.016 147.261,446.016 143.5,447.5C 140.833,447.5 138.167,447.5 135.5,447.5C 125.828,447.334 116.161,447.5 106.5,448C 105.099,448.41 103.766,448.91 102.5,449.5C 98.3168,449.67 94.6502,451.003 91.5,453.5C 91.6309,452.624 91.2975,451.957 90.5,451.5C 87.1512,452.83 86.8179,452.33 89.5,450C 86.1494,451.066 82.9827,450.566 80,448.5C 79.3123,447.668 79.479,447.002 80.5,446.5C 82.444,445.811 84.444,445.311 86.5,445C 105.664,442.686 124.664,441.52 143.5,441.5C 153.147,440.744 162.814,440.244 172.5,440C 152.329,439.832 132.329,439.332 112.5,438.5 Z"/></g>
<g><path style="opacity:1" fill="#d7d7d7" d="M 437.5,447.5 C 429.833,447.5 422.167,447.5 414.5,447.5C 400.167,447.5 385.833,447.5 371.5,447.5C 362.024,446.217 352.357,445.383 342.5,445C 320.168,444.461 297.834,443.961 275.5,443.5C 259.246,443.518 243.079,444.184 227,445.5C 225.769,444.892 224.436,444.559 223,444.5C 209.657,445.155 196.49,446.155 183.5,447.5C 170.167,447.5 156.833,447.5 143.5,447.5C 147.261,446.016 151.261,445.016 155.5,444.5C 156.607,445.022 157.774,445.355 159,445.5C 237.765,439.708 316.598,438.875 395.5,443C 403.576,443.171 411.576,444.004 419.5,445.5C 420.772,445.43 421.938,445.097 423,444.5C 427.08,445.3 431.247,445.8 435.5,446C 436.416,446.278 437.082,446.778 437.5,447.5 Z"/></g>
<g><path style="opacity:1" fill="#c9c9c9" d="M 371.5,447.5 C 367.5,447.5 363.5,447.5 359.5,447.5C 305.5,447.5 251.5,447.5 197.5,447.5C 192.833,447.5 188.167,447.5 183.5,447.5C 196.49,446.155 209.657,445.155 223,444.5C 224.436,444.559 225.769,444.892 227,445.5C 243.079,444.184 259.246,443.518 275.5,443.5C 297.834,443.961 320.168,444.461 342.5,445C 352.357,445.383 362.024,446.217 371.5,447.5 Z"/></g>
<g><path style="opacity:1" fill="#b5b5b5" d="M 135.5,447.5 C 131.171,448.061 126.838,448.894 122.5,450C 149.363,450.515 176.197,451.682 203,453.5C 205.532,453.376 208.032,453.043 210.5,452.5C 254.713,454.932 298.879,454.932 343,452.5C 350.832,453.331 358.665,453.665 366.5,453.5C 385.621,451.755 404.621,450.421 423.5,449.5C 420.358,448.833 417.358,448.166 414.5,447.5C 422.167,447.5 429.833,447.5 437.5,447.5C 443.212,447.313 448.879,447.646 454.5,448.5C 456.579,448.971 458.579,449.637 460.5,450.5C 457.402,451.821 453.902,452.488 450,452.5C 425.645,453.5 401.312,454.5 377,455.5C 349.64,455.876 322.473,455.876 295.5,455.5C 283.495,455.333 271.495,455.5 259.5,456C 255.975,456.179 252.641,456.679 249.5,457.5C 246.272,457.299 243.105,457.633 240,458.5C 236.103,454.986 231.937,454.653 227.5,457.5C 224.364,456.324 221.197,456.324 218,457.5C 181.126,454.789 144.293,453.289 107.5,453C 105.285,451.956 102.952,451.29 100.5,451C 101.416,450.722 102.082,450.222 102.5,449.5C 103.766,448.91 105.099,448.41 106.5,448C 116.161,447.5 125.828,447.334 135.5,447.5 Z"/></g>
<g><path style="opacity:1" fill="#a8a8a8" d="M 135.5,447.5 C 138.167,447.5 140.833,447.5 143.5,447.5C 156.833,447.5 170.167,447.5 183.5,447.5C 188.167,447.5 192.833,447.5 197.5,447.5C 195.708,448.309 193.708,448.809 191.5,449C 216.616,450.746 241.782,451.58 267,451.5C 298.168,451.075 329.335,450.575 360.5,450C 361.167,449.667 361.833,449.333 362.5,449C 361.263,448.768 360.263,448.268 359.5,447.5C 363.5,447.5 367.5,447.5 371.5,447.5C 385.833,447.5 400.167,447.5 414.5,447.5C 417.358,448.166 420.358,448.833 423.5,449.5C 404.621,450.421 385.621,451.755 366.5,453.5C 358.665,453.665 350.832,453.331 343,452.5C 298.879,454.932 254.713,454.932 210.5,452.5C 208.032,453.043 205.532,453.376 203,453.5C 176.197,451.682 149.363,450.515 122.5,450C 126.838,448.894 131.171,448.061 135.5,447.5 Z"/></g>
<g><path style="opacity:1" fill="#9c9c9c" d="M 197.5,447.5 C 251.5,447.5 305.5,447.5 359.5,447.5C 360.263,448.268 361.263,448.768 362.5,449C 361.833,449.333 361.167,449.667 360.5,450C 329.335,450.575 298.168,451.075 267,451.5C 241.782,451.58 216.616,450.746 191.5,449C 193.708,448.809 195.708,448.309 197.5,447.5 Z"/></g>
<g><path style="opacity:1" fill="#cdcdcd" d="M 102.5,449.5 C 102.082,450.222 101.416,450.722 100.5,451C 102.952,451.29 105.285,451.956 107.5,453C 144.293,453.289 181.126,454.789 218,457.5C 221.197,456.324 224.364,456.324 227.5,457.5C 231.937,454.653 236.103,454.986 240,458.5C 243.105,457.633 246.272,457.299 249.5,457.5C 238.781,459.508 228.115,462.175 217.5,465.5C 216.761,465.631 216.094,465.464 215.5,465C 216.641,464.259 216.641,463.425 215.5,462.5C 214.167,462.167 212.833,461.833 211.5,461.5C 203.125,464.035 194.791,464.035 186.5,461.5C 185.353,461.818 184.519,462.484 184,463.5C 183.517,462.552 183.351,461.552 183.5,460.5C 180.833,460.5 178.167,460.5 175.5,460.5C 175.5,461.5 175.5,462.5 175.5,463.5C 169.324,463.427 163.49,462.427 158,460.5C 150.301,461.67 142.634,462.67 135,463.5C 132.243,461.973 129.243,461.307 126,461.5C 114.931,462.321 103.931,462.655 93,462.5C 91,461.833 89,461.167 87,460.5C 85.982,463.642 84.8153,463.976 83.5,461.5C 85.4725,458.194 88.1392,455.527 91.5,453.5C 94.6502,451.003 98.3168,449.67 102.5,449.5 Z"/></g>
<g><path style="opacity:1" fill="#cecece" d="M 460.5,450.5 C 467.008,452.751 472.008,456.751 475.5,462.5C 474.791,463.404 473.791,463.737 472.5,463.5C 472.404,459.689 471.738,459.689 470.5,463.5C 469.494,463.062 469.494,462.396 470.5,461.5C 470.192,460.692 469.692,460.025 469,459.5C 468.667,460.833 468.333,462.167 468,463.5C 466.488,461.043 465.154,461.043 464,463.5C 448.759,461.384 433.426,461.05 418,462.5C 411.407,462.544 404.907,461.878 398.5,460.5C 396.17,462.572 393.336,463.572 390,463.5C 383.872,462.26 377.706,461.26 371.5,460.5C 366.73,461.921 361.897,463.255 357,464.5C 347.169,461.955 337.335,460.955 327.5,461.5C 316.817,459.498 306.15,457.498 295.5,455.5C 322.473,455.876 349.64,455.876 377,455.5C 401.312,454.5 425.645,453.5 450,452.5C 453.902,452.488 457.402,451.821 460.5,450.5 Z"/></g>
<g><path style="opacity:1" fill="#fdfdfd" d="M 295.5,455.5 C 306.15,457.498 316.817,459.498 327.5,461.5C 335.967,464.886 344.633,468.052 353.5,471C 356.761,473.452 360.094,475.619 363.5,477.5C 368.825,481.497 374.158,485.497 379.5,489.5C 386.307,498.152 392.974,506.986 399.5,516C 405.719,516.795 411.719,516.462 417.5,515C 421.51,518.191 423.177,522.358 422.5,527.5C 425.167,527.5 427.833,527.5 430.5,527.5C 430.5,530.167 430.5,532.833 430.5,535.5C 425.167,535.5 419.833,535.5 414.5,535.5C 414.5,538.167 414.5,540.833 414.5,543.5C 406.5,543.5 398.5,543.5 390.5,543.5C 390.5,546.167 390.5,548.833 390.5,551.5C 382.5,551.5 374.5,551.5 366.5,551.5C 366.5,553.833 366.5,556.167 366.5,558.5C 308.167,558.5 249.833,558.5 191.5,558.5C 191.5,556.167 191.5,553.833 191.5,551.5C 182.5,551.5 173.5,551.5 164.5,551.5C 164.5,548.833 164.5,546.167 164.5,543.5C 163.167,543.5 161.833,543.5 160.5,543.5C 160.167,554.167 159.833,554.167 159.5,543.5C 155.833,543.5 152.167,543.5 148.5,543.5C 148.5,540.833 148.5,538.167 148.5,535.5C 147.167,535.5 145.833,535.5 144.5,535.5C 144.167,546.167 143.833,546.167 143.5,535.5C 139.833,535.5 136.167,535.5 132.5,535.5C 132.5,530.167 132.5,524.833 132.5,519.5C 136.302,520.12 139.635,519.286 142.5,517C 148.196,516.83 153.862,516.33 159.5,515.5C 162.742,509.101 166.908,503.434 172,498.5C 172.483,497.552 172.649,496.552 172.5,495.5C 174.179,495.715 175.179,495.048 175.5,493.5C 182.137,488.198 188.47,482.531 194.5,476.5C 197.919,475.626 201.252,474.46 204.5,473C 208.779,470.062 213.112,467.562 217.5,465.5C 228.115,462.175 238.781,459.508 249.5,457.5C 252.641,456.679 255.975,456.179 259.5,456C 271.495,455.5 283.495,455.333 295.5,455.5 Z"/></g>
<g><path style="opacity:1" fill="#dbdbdb" d="M 217.5,465.5 C 213.112,467.562 208.779,470.062 204.5,473C 201.252,474.46 197.919,475.626 194.5,476.5C 191.011,477.689 190.678,476.855 193.5,474C 157.863,473.93 122.196,474.763 86.5,476.5C 86.6495,475.448 86.4828,474.448 86,473.5C 85.3333,475.5 84.6667,477.5 84,479.5C 83.6667,477.833 83.3333,476.167 83,474.5C 82.9504,476.744 82.1171,478.411 80.5,479.5C 80.3345,475.486 80.5012,471.486 81,467.5C 81.2401,465.148 82.0735,463.148 83.5,461.5C 84.8153,463.976 85.982,463.642 87,460.5C 89,461.167 91,461.833 93,462.5C 103.931,462.655 114.931,462.321 126,461.5C 129.243,461.307 132.243,461.973 135,463.5C 142.634,462.67 150.301,461.67 158,460.5C 163.49,462.427 169.324,463.427 175.5,463.5C 175.5,462.5 175.5,461.5 175.5,460.5C 178.167,460.5 180.833,460.5 183.5,460.5C 183.351,461.552 183.517,462.552 184,463.5C 184.519,462.484 185.353,461.818 186.5,461.5C 194.791,464.035 203.125,464.035 211.5,461.5C 212.833,461.833 214.167,462.167 215.5,462.5C 216.641,463.425 216.641,464.259 215.5,465C 216.094,465.464 216.761,465.631 217.5,465.5 Z"/></g>
<g><path style="opacity:1" fill="#dbdbdb" d="M 475.5,462.5 C 477.28,463.99 477.946,465.99 477.5,468.5C 476.952,471.084 475.285,472.084 472.5,471.5C 472.5,473.167 472.5,474.833 472.5,476.5C 436.128,474.778 399.794,473.945 363.5,474C 366.97,476.123 366.97,477.29 363.5,477.5C 360.094,475.619 356.761,473.452 353.5,471C 344.633,468.052 335.967,464.886 327.5,461.5C 337.335,460.955 347.169,461.955 357,464.5C 361.897,463.255 366.73,461.921 371.5,460.5C 377.706,461.26 383.872,462.26 390,463.5C 393.336,463.572 396.17,462.572 398.5,460.5C 404.907,461.878 411.407,462.544 418,462.5C 433.426,461.05 448.759,461.384 464,463.5C 465.154,461.043 466.488,461.043 468,463.5C 468.333,462.167 468.667,460.833 469,459.5C 469.692,460.025 470.192,460.692 470.5,461.5C 469.494,462.396 469.494,463.062 470.5,463.5C 471.738,459.689 472.404,459.689 472.5,463.5C 473.791,463.737 474.791,463.404 475.5,462.5 Z"/></g>
<g><path style="opacity:1" fill="#efefef" d="M -0.5,471.5 C 2.16667,471.5 4.83333,471.5 7.5,471.5C 7.5,474.167 7.5,476.833 7.5,479.5C 10.1667,479.5 12.8333,479.5 15.5,479.5C 15.5,482.167 15.5,484.833 15.5,487.5C 18.1667,487.5 20.8333,487.5 23.5,487.5C 23.5,490.167 23.5,492.833 23.5,495.5C 26.1667,495.5 28.8333,495.5 31.5,495.5C 31.5,498.167 31.5,500.833 31.5,503.5C 34.1667,503.5 36.8333,503.5 39.5,503.5C 39.5,506.167 39.5,508.833 39.5,511.5C 42.1667,511.5 44.8333,511.5 47.5,511.5C 47.5,514.167 47.5,516.833 47.5,519.5C 50.1667,519.5 52.8333,519.5 55.5,519.5C 55.5,522.167 55.5,524.833 55.5,527.5C 60.8333,527.5 66.1667,527.5 71.5,527.5C 71.5,530.167 71.5,532.833 71.5,535.5C 74.1667,535.5 76.8333,535.5 79.5,535.5C 79.5,539.167 79.5,542.833 79.5,546.5C 82.1667,546.5 84.8333,546.5 87.5,546.5C 87.5,545.5 87.5,544.5 87.5,543.5C 90.1667,543.5 92.8333,543.5 95.5,543.5C 95.5,546.167 95.5,548.833 95.5,551.5C 98.1667,551.5 100.833,551.5 103.5,551.5C 103.5,553.833 103.5,556.167 103.5,558.5C 68.8333,558.5 34.1667,558.5 -0.5,558.5C -0.5,529.5 -0.5,500.5 -0.5,471.5 Z"/></g>
<g><path style="opacity:1" fill="#e3e3e3" d="M 344.5,481.5 C 345.204,484.461 344.537,484.794 342.5,482.5C 341.312,483.84 339.812,484.507 338,484.5C 321.262,482.574 304.429,481.907 287.5,482.5C 287.719,483.675 287.386,484.675 286.5,485.5C 285.494,485.062 285.494,484.396 286.5,483.5C 285.264,482.643 283.931,481.977 282.5,481.5C 276.954,480.95 271.454,481.617 266,483.5C 251.855,482.709 237.688,482.209 223.5,482C 222.975,481.308 222.308,480.808 221.5,480.5C 220.167,481.5 218.833,482.5 217.5,483.5C 216.914,483.291 216.414,482.957 216,482.5C 214.534,484.325 212.701,484.825 210.5,484C 211.056,483.617 211.389,483.117 211.5,482.5C 220.838,476.883 230.838,472.717 241.5,470C 271.24,463.025 300.574,464.359 329.5,474C 334.735,476.232 339.735,478.732 344.5,481.5 Z"/></g>
<g><path style="opacity:1" fill="#efefef" d="M 559.5,479.5 C 559.5,505.833 559.5,532.167 559.5,558.5C 524.833,558.5 490.167,558.5 455.5,558.5C 455.5,556.167 455.5,553.833 455.5,551.5C 460.833,551.5 466.167,551.5 471.5,551.5C 471.5,549.833 471.5,548.167 471.5,546.5C 474.167,546.5 476.833,546.5 479.5,546.5C 479.5,545.5 479.5,544.5 479.5,543.5C 482.167,543.5 484.833,543.5 487.5,543.5C 487.5,540.833 487.5,538.167 487.5,535.5C 490.167,535.5 492.833,535.5 495.5,535.5C 495.5,532.833 495.5,530.167 495.5,527.5C 498.167,527.5 500.833,527.5 503.5,527.5C 503.5,524.833 503.5,522.167 503.5,519.5C 508.833,519.5 514.167,519.5 519.5,519.5C 519.5,516.833 519.5,514.167 519.5,511.5C 522.167,511.5 524.833,511.5 527.5,511.5C 527.5,508.833 527.5,506.167 527.5,503.5C 530.167,503.5 532.833,503.5 535.5,503.5C 535.5,500.833 535.5,498.167 535.5,495.5C 538.167,495.5 540.833,495.5 543.5,495.5C 543.5,492.833 543.5,490.167 543.5,487.5C 546.167,487.5 548.833,487.5 551.5,487.5C 551.5,484.833 551.5,482.167 551.5,479.5C 554.167,479.5 556.833,479.5 559.5,479.5 Z"/></g>
<g><path style="opacity:1" fill="#eeeeee" d="M 344.5,481.5 C 345.873,481.343 347.207,481.51 348.5,482C 353.1,485.451 357.767,488.618 362.5,491.5C 362.548,494.635 364.215,496.302 367.5,496.5C 368.921,499.009 370.588,501.343 372.5,503.5C 375.468,507.876 376.468,510.542 375.5,511.5C 373.61,511.703 372.11,511.037 371,509.5C 370.5,510 370,510.5 369.5,511C 362.074,511.86 354.741,511.36 347.5,509.5C 345.68,509.649 344.18,510.316 343,511.5C 336.594,504.193 328.76,498.693 319.5,495C 298.83,487.346 277.497,485.346 255.5,489C 251.155,490.893 246.655,492.393 242,493.5C 231.315,499.339 220.982,505.672 211,512.5C 203.377,511.802 195.71,511.135 188,510.5C 185.842,511.451 183.675,511.951 181.5,512C 183.77,508.73 185.604,505.23 187,501.5C 189.333,498.833 191.667,496.167 194,493.5C 199.853,489.683 205.686,486.017 211.5,482.5C 211.389,483.117 211.056,483.617 210.5,484C 212.701,484.825 214.534,484.325 216,482.5C 216.414,482.957 216.914,483.291 217.5,483.5C 218.833,482.5 220.167,481.5 221.5,480.5C 222.308,480.808 222.975,481.308 223.5,482C 237.688,482.209 251.855,482.709 266,483.5C 271.454,481.617 276.954,480.95 282.5,481.5C 283.931,481.977 285.264,482.643 286.5,483.5C 285.494,484.396 285.494,485.062 286.5,485.5C 287.386,484.675 287.719,483.675 287.5,482.5C 304.429,481.907 321.262,482.574 338,484.5C 339.812,484.507 341.312,483.84 342.5,482.5C 344.537,484.794 345.204,484.461 344.5,481.5 Z"/></g>
<g><path style="opacity:1" fill="#e8e8e8" d="M 477.5,468.5 C 478.822,477.342 478.822,486.342 477.5,495.5C 476.224,490.318 475.557,490.318 475.5,495.5C 468.137,495.831 460.803,495.497 453.5,494.5C 452.974,492.77 451.974,491.436 450.5,490.5C 448.636,491.993 446.47,492.66 444,492.5C 425.564,490.62 407.064,489.954 388.5,490.5C 388.66,492.199 388.494,493.866 388,495.5C 386.565,491.686 383.731,489.686 379.5,489.5C 374.158,485.497 368.825,481.497 363.5,477.5C 366.97,477.29 366.97,476.123 363.5,474C 399.794,473.945 436.128,474.778 472.5,476.5C 472.5,474.833 472.5,473.167 472.5,471.5C 475.285,472.084 476.952,471.084 477.5,468.5 Z"/></g>
<g><path style="opacity:1" fill="#e8e8e8" d="M 194.5,476.5 C 188.47,482.531 182.137,488.198 175.5,493.5C 174.022,493.762 172.689,493.429 171.5,492.5C 173.053,491.561 174.387,490.394 175.5,489C 175.167,488.5 174.833,488 174.5,487.5C 172.476,489.358 170.309,491.025 168,492.5C 160.066,491.183 151.9,490.516 143.5,490.5C 132.801,490.723 122.134,491.39 111.5,492.5C 108.387,492.438 105.554,491.771 103,490.5C 101.991,492.025 101.491,493.692 101.5,495.5C 95.9854,495.621 90.6521,495.621 85.5,495.5C 84.3764,497.369 83.5431,499.369 83,501.5C 80.7605,494.368 79.9272,487.035 80.5,479.5C 82.1171,478.411 82.9504,476.744 83,474.5C 83.3333,476.167 83.6667,477.833 84,479.5C 84.6667,477.5 85.3333,475.5 86,473.5C 86.4828,474.448 86.6495,475.448 86.5,476.5C 122.196,474.763 157.863,473.93 193.5,474C 190.678,476.855 191.011,477.689 194.5,476.5 Z"/></g>
</svg>
